<svg width="26" height="18" viewBox="0 0 26 18" fill="none" xmlns="http://www.w3.org/2000/svg">
<rect x="2.5" y="1.16025" width="9" height="2" fill="black" stroke="black"/>
<rect x="4.5" y="5.16025" width="7" height="2" fill="black" stroke="black"/>
<rect x="0.5" y="9.81024" width="11" height="2" fill="black" stroke="black"/>
<rect x="2.5" y="13.8102" width="9" height="2" fill="black" stroke="black"/>
<path d="M24.25 8.22754C24.5832 8.42004 24.5833 8.90133 24.25 9.09375L12.7451 15.7354C12.1918 16.0548 11.5 15.6555 11.5 15.0166V1.55859C11.5002 1.25086 11.833 1.05907 12.0996 1.21289L24.25 8.22754Z" stroke="black"/>
<path d="M20.25 8.22763C20.5831 8.42011 20.5831 8.90038 20.25 9.09286L14.25 12.5577C13.9167 12.75 13.5 12.509 13.5 12.1241V5.19638C13.5 4.81154 13.9167 4.5705 14.25 4.76279L20.25 8.22763Z" fill="black" stroke="black"/>
</svg>
