<svg width="26" height="18" viewBox="0 0 26 18" fill="none" xmlns="http://www.w3.org/2000/svg">
<rect x="2" y="0.660248" width="10" height="3" fill="white"/>
<rect x="4" y="4.66025" width="8" height="3" fill="white"/>
<rect y="9.31024" width="12" height="3" fill="white"/>
<rect x="2" y="13.3102" width="10" height="3" fill="white"/>
<path d="M24.25 8.22754C24.5832 8.42004 24.5833 8.90133 24.25 9.09375L12.7451 15.7354C12.1918 16.0548 11.5 15.6555 11.5 15.0166V1.55859C11.5002 1.25086 11.833 1.05907 12.0996 1.21289L24.25 8.22754Z" stroke="white"/>
<path d="M20.5 7.79422C21.1667 8.17912 21.1667 9.14137 20.5 9.52627L14.5 12.9904C13.8333 13.3753 13 12.8941 13 12.1243V5.19615C13 4.42635 13.8333 3.94522 14.5 4.33012L20.5 7.79422Z" fill="white"/>
</svg>
