<svg width="26" height="26" viewBox="0 0 26 26" fill="none" xmlns="http://www.w3.org/2000/svg">
<path d="M10.3334 7V4C10.3334 3.20435 10.6143 2.44129 11.1144 1.87868C11.6145 1.31607 12.2928 1 13 1H22.3334C23.0406 1 23.7189 1.31607 24.219 1.87868C24.7191 2.44129 25 3.20435 25 4V22C25 22.7956 24.7191 23.5587 24.219 24.1213C23.7189 24.6839 23.0406 25 22.3334 25H13C12.2928 25 11.6145 24.6839 11.1144 24.1213C10.6143 23.5587 10.3334 22.7956 10.3334 22V19" stroke="white" stroke-width="2" stroke-linecap="round" stroke-linejoin="round"/>
<path d="M17 13H1M5 17.5L1 13L5 8.5" stroke="white" stroke-width="2" stroke-linecap="round" stroke-linejoin="round"/>
</svg>
