<svg width="35" height="32" viewBox="0 0 35 32" fill="none" xmlns="http://www.w3.org/2000/svg">
<path d="M34.4701 29.2181C31.9342 25.1266 28.0263 22.1928 23.4657 20.802C25.7216 19.5487 27.4743 17.6389 28.4546 15.366C29.4349 13.0931 29.5887 10.5827 28.8923 8.22039C28.1959 5.85804 26.6878 3.77435 24.5996 2.28931C22.5115 0.804276 19.9587 0 17.3333 0C14.708 0 12.1552 0.804276 10.0671 2.28931C7.9789 3.77435 6.47081 5.85804 5.77439 8.22039C5.07797 10.5827 5.23173 13.0931 6.21204 15.366C7.19236 17.6389 8.94504 19.5487 11.2009 20.802C6.64032 22.1912 2.73242 25.125 0.196538 29.2181C0.103542 29.3596 0.041859 29.517 0.0151274 29.6812C-0.0116042 29.8453 -0.00284271 30.0127 0.040895 30.1736C0.0846326 30.3346 0.162461 30.4857 0.269787 30.618C0.377113 30.7504 0.511763 30.8614 0.665793 30.9444C0.819823 31.0275 0.990113 31.0809 1.16661 31.1015C1.34312 31.1221 1.52226 31.1095 1.69346 31.0645C1.86467 31.0194 2.02448 30.9429 2.16345 30.8392C2.30243 30.7356 2.41776 30.6071 2.50265 30.4612C5.63962 25.4016 11.1843 22.3808 17.3333 22.3808C23.4824 22.3808 29.0271 25.4016 32.164 30.4612C32.2489 30.6071 32.3642 30.7356 32.5032 30.8392C32.6422 30.9429 32.802 31.0194 32.9732 31.0645C33.1444 31.1095 33.3236 31.1221 33.5001 31.1015C33.6766 31.0809 33.8468 31.0275 34.0009 30.9444C34.1549 30.8614 34.2896 30.7504 34.3969 30.618C34.5042 30.4857 34.582 30.3346 34.6258 30.1736C34.6695 30.0127 34.6783 29.8453 34.6515 29.6812C34.6248 29.517 34.5631 29.3596 34.4701 29.2181ZM8.009 11.1925C8.009 9.47141 8.55586 7.78897 9.58043 6.35793C10.605 4.9269 12.0613 3.81154 13.7651 3.15291C15.4689 2.49428 17.3437 2.32195 19.1524 2.65772C20.9612 2.99348 22.6226 3.82227 23.9266 5.03926C25.2307 6.25626 26.1187 7.80681 26.4785 9.49483C26.8383 11.1828 26.6536 12.9325 25.9479 14.5226C25.2422 16.1127 24.047 17.4718 22.5137 18.4279C20.9803 19.3841 19.1775 19.8945 17.3333 19.8945C14.8612 19.892 12.491 18.9744 10.743 17.343C8.99487 15.7116 8.01164 13.4997 8.009 11.1925Z" fill="black"/>
</svg>
